<svg width="309" height="118" fill="none" xmlns="http://www.w3.org/2000/svg"><path fill-rule="evenodd" clip-rule="evenodd" d="M36.217 0c19.42 0 33.24 4.06 33.24 15.53 0 3.824-1.55 8.48-4.888 14.095.096-.551.136-1.11.12-1.67 0-10.632-17.152-12.783-28.353-12.783-8.814 0-15.13 1.551-15.13 8.84 0 17.448 51.109-1.314 51.109 38.118 0 18.276-15.727 27.482-38.005 27.482-15.609 0-32.167-4.9-32.167-16.015 0-3.463 1.551-7.523 5.362-12.306 0 10.88 16.796 13.148 26.805 13.148 11.558 0 16.795-3.828 16.795-10.871C51.105 43.849 0 62.608 0 26.285 0 6.094 16.321 0 36.216 0M81.73 1.668H94.6c3.577 0 6.19 2.745 6.19 4.539v11.47H88.045c-3.695 0-6.315-2.27-6.315-4.417V1.668zm-.355 22.825c1.669 0 20.015.359 20.015 9.198v55.446s-20.015 0-20.015-9.206V24.493zM148.575 39.063c-2.385-.834-5.484-1.304-8.104-1.304-6.192 0-9.411 2.154-9.411 8.84v1.073c0 6.576 1.431 10.283 8.7 10.283 6.91 0 8.815-3.706 8.815-10.279v-8.613zm19.658 10.4c0 14.103-10.011 22.465-28.473 22.465-7.863 0-14.773-2.988-14.773-2.988s-.479 1.912-.479 3.348c0 4.42 6.199 5.375 13.224 5.375h3.931c13.584 0 28.354-.951 28.354 18.047 0 13.026-9.532 21.506-30.377 21.506-18.349 0-27.641-5.849-27.641-13.378 0-3.588 1.552-7.168 4.769-11.234 1.906 10.274 13.819 10.633 20.967 10.633 9.053 0 12.87-1.912 12.87-6.452 0-4.182-3.817-4.663-9.296-4.663h-5.845c-14.177 0-25.614-2.03-25.614-13.738 0-4.9 2.743-8.722 7.031-13.862-3.694-3.222-5.836-11.113-5.836-15.056v-4.662c0-15.292 12.985-20.909 25.848-20.909 6.551 0 13.704 2.629 19.657 2.629 2.979 0 6.557-.835 11.679-2.746l.004 25.684zM214.834 46.834c0-5.618-2.264-8.6-9.058-8.6-4.168-.005-9.168 1.07-9.168 1.07v49.833s-20.016 0-20.016-9.202v-56.4s5.241 2.87 13.104 2.87c5.837 0 11.433-2.513 17.754-2.513 13.332 0 27.399 4.541 27.399 21.151v44.094s-20.015-.241-20.015-9.202V46.834z" fill="#000"/><path d="M284.845 24.26h-20.851c-10.895 0-23.88 5.669-23.88 32.677 0 26.805 12.985 32.435 23.88 32.435h20.852c15.399 0 23.88-11.519 23.88-32.435-.001-21.072-8.482-32.677-23.881-32.677zm-.949 41.218c0 5.952-1.401 8.784-9.361 8.784-8.158 0-9.593-2.833-9.593-8.789V48.15c0-5.87 1.435-8.665 9.593-8.665 7.959 0 9.361 2.793 9.361 8.663v17.33z" fill="#000"/></svg>