<svg xmlns="http://www.w3.org/2000/svg" width="600" height="186" fill="none"><g fill="#000"><path d="M138.65.3H0v184.837h138.65V.3z"/><path d="M32.372 64.905v6.93h-6.93v-6.93h-6.977v-6.977h6.977v-6.93h6.93v6.93h6.977v6.977h-6.977zm0 40.65v6.977h-6.93v-6.977h-6.977v-6.93h6.977V91.65h6.93v6.977h6.977v6.93h-6.977zm0 40.418v6.93h-6.93v-6.93h-6.977v-6.93h6.977v-6.976h6.93v6.976h6.977v6.93h-6.977zm80.79-81.07v6.93h-6.93v-6.93h-6.977v-6.977h6.977v-6.93h6.93v6.93h6.977v6.977h-6.977zm0 40.65v6.977h-6.93v-6.977h-6.977v-6.93h6.977V91.65h6.93v6.977h6.977v6.93h-6.977zm0 40.418v6.93h-6.93v-6.93h-6.977v-6.93h6.977v-6.976h6.93v6.976h6.977v6.93h-6.977zm-66.93-40.558c0 5.628 1.767 10.558 5.302 14.8 3.535 4.186 7.907 6.884 13.2 7.907.372 1.72.512 3.07.512 3.954.698 6.5-.186 12.697-2.65 18.5-2.28 5.814-5.72 10.744-10.28 14.8-.186 0-.28.186-.28.5 0 .512.28.8.8.8H85.86c.512 0 .8-.232.8-.8 0-.372-.093-.5-.28-.5-4.558-4.047-8.093-8.977-10.558-14.8-2.28-5.814-3.07-11.953-2.372-18.5 0-.884.186-2.187.512-3.954 5.302-1.07 9.674-3.72 13.2-7.907 3.535-4.233 5.302-9.163 5.302-14.8v-.8c0-.372-.28-.558-.8-.558h-44.65c-.512 0-.8.186-.8.558v.8zm11.58-16.14c0-6.326 5.163-11.488 11.488-11.488s11.5 5.165 11.5 11.492c0 6.372-5.163 11.488-11.488 11.488-6.326.047-11.488-5.116-11.488-11.488zm15.023-24.42v6.977H65.86v-6.977h-6.977v-6.93h6.977v-6.93h6.977v6.93h6.93v6.93h-6.93zM68.14 9.556v1.86h-1.86v2.093h1.86v1.86h2.372v-1.86h1.86v-2.093h-1.86v-1.86H68.14zM49.907 37.5h3.674l-5.302-7.395c-.698-1.395-1.07-2.558-1.07-3.442a5.51 5.51 0 011.581-3.954c1.2-1.256 2.744-1.86 4.465-1.86 1.07 0 1.767.046 2.093.232-.512 1.395-.8 2.744-.8 3.954 0 1.767.372 3.256 1.07 4.465l4.465 7.907h3.442l-5.302-9.256c-.512-1.07-.8-2.093-.8-3.163 0-1.58.512-2.93 1.58-3.953 1.2-1.2 2.65-1.86 4.233-1.86 1.907 0 3.442.698 4.512 2.093V37.37h2.884V21.416c1.07-1.395 2.558-2.093 4.512-2.093 1.58 0 2.884.605 3.953 1.86 1.256 1.07 1.86 2.372 1.86 3.953 0 1.07-.28 2.093-.8 3.163l-5.256 9.256h3.442l4.512-7.907c.698-1.256 1.07-2.744 1.07-4.465 0-1.2-.28-2.558-.8-3.954.512-.186 1.256-.233 2.14-.233 1.767 0 3.163.605 4.233 1.86 1.2 1.07 1.86 2.372 1.86 3.953 0 .884-.372 2.047-1.07 3.442l-5.302 7.395h3.72l3.953-5.814c1.07-1.256 1.582-2.884 1.582-5.023 0-2.465-.884-4.512-2.65-6.093-1.767-1.767-3.86-2.65-6.326-2.65-1.395 0-2.744.28-3.954.8-1.58-1.58-3.628-2.372-6.093-2.372s-4.42.698-5.814 2.093c-1.767-1.395-3.767-2.093-6.093-2.093-2.465 0-4.512.8-6.093 2.372-1.395-.512-2.744-.8-3.953-.8-2.465 0-4.558.884-6.326 2.65-1.767 1.58-2.65 3.628-2.65 6.093 0 2.093.512 3.767 1.58 5.023l4 5.674zm1.07 2.93l.512 2.884h35.674l.512-2.884H50.977z"/></g><path d="M32.326 64.95v6.977h-6.93V64.95h-6.93v-6.93h6.93V51.1h6.93v6.93h6.93v6.93h-6.93zm0 40.606v6.977h-6.93v-6.977h-6.93v-6.93h6.93v-6.93h6.93v6.93h6.93v6.93h-6.93zm0 40.372v6.93h-6.93v-6.93h-6.93v-6.93h6.93v-6.977h6.93v6.977h6.93v6.93h-6.93zm80.697-80.978v6.977h-6.977V64.95h-6.93v-6.93h6.93V51.1h6.977v6.93h6.93v6.93h-6.93zm0 40.606v6.977h-6.977v-6.977h-6.93v-6.93h6.93v-6.93h6.977v6.93h6.93v6.93h-6.93zm0 40.372v6.93h-6.977v-6.93h-6.93v-6.93h6.93v-6.977h6.977v6.977h6.93v6.93h-6.93zM46.14 105.416c0 5.628 1.767 10.558 5.302 14.8 3.535 4.186 7.907 6.837 13.163 7.907.372 1.72.512 3.07.512 3.954.698 6.5-.186 12.65-2.65 18.465-2.28 5.814-5.72 10.744-10.28 14.744-.186 0-.28.186-.28.5 0 .512.28.8.8.8h32.977c.512 0 .8-.232.8-.8 0-.325-.093-.5-.28-.5-4.558-4.047-8.093-8.977-10.558-14.744-2.28-5.814-3.07-11.954-2.372-18.465 0-.884.186-2.187.512-3.954 5.256-1.07 9.675-3.72 13.163-7.907 3.535-4.233 5.256-9.163 5.256-14.8v-.8c0-.372-.28-.558-.8-.558H46.837c-.512 0-.8.186-.8.558v.8h.093zm11.628-16.093c0-6.326 5.116-11.442 11.488-11.442 6.326 0 11.488 5.116 11.488 11.442s-5.163 11.5-11.488 11.5c-6.372 0-11.488-5.163-11.488-11.5zm14.93-24.373v6.93h-6.93v-6.93H58.8v-6.93h6.977V51.1h6.93v6.93h6.93v6.93h-6.93zm-4.65-55.255v1.86h-1.86v2.093h1.86v1.86h2.372v-1.86h1.814v-2.093H70.42v-1.86h-2.372zM49.86 37.65h3.675l-5.256-7.395c-.698-1.395-1.07-2.558-1.07-3.442 0-1.58.512-2.884 1.58-3.953C50 21.604 51.487 21 53.254 21c1.07 0 1.767.047 2.093.233-.512 1.395-.8 2.744-.8 3.954 0 1.767.326 3.256 1.07 4.465l4.465 7.907h3.442l-5.256-9.2c-.512-1.07-.8-2.093-.8-3.163 0-1.58.512-2.93 1.58-3.954 1.2-1.2 2.65-1.86 4.233-1.86 1.907 0 3.442.698 4.465 2.093v16.093h2.884v-16c1.07-1.395 2.558-2.093 4.465-2.093 1.58 0 2.884.605 3.953 1.86 1.256 1.07 1.86 2.372 1.86 3.954 0 1.07-.28 2.093-.8 3.163l-5.256 9.2h3.442l4.512-7.907c.698-1.256 1.07-2.698 1.07-4.465 0-1.2-.28-2.558-.8-3.954.512-.186 1.256-.233 2.14-.233 1.767 0 3.163.605 4.233 1.86 1.256 1.023 1.86 2.372 1.86 3.953 0 .884-.372 2.047-1.07 3.442l-5.256 7.395h3.674l3.953-5.814c1.07-1.256 1.58-2.884 1.58-5.023 0-2.465-.884-4.512-2.65-6.046-1.767-1.768-3.86-2.65-6.326-2.65-1.395 0-2.744.28-3.953.8-1.58-1.58-3.628-2.372-6.093-2.372s-4.372.698-5.814 2.093a9.46 9.46 0 00-6.047-2.093c-2.465 0-4.512.8-6.093 2.372-1.395-.512-2.744-.8-3.953-.8-2.465 0-4.558.884-6.326 2.65-1.767 1.58-2.65 3.628-2.65 6.046 0 2.093.512 3.767 1.58 5.023l3.953 5.72zm1.024 2.883l.558 2.93h35.58l.512-2.93h-36.65z" fill="#fff"/><path d="M381.256 24.58c-1.72-.186-3.72-.28-5.954-.28h-6.093v32.605c0 2.93.186 5.86.512 8.8.605 3.116 1.302 5.58 2.372 8.558H358.14c1.07-2.977 1.813-5.488 2.372-8.605.372-2.93.5-5.814.5-8.744V24.3h-6.093l-5.953.28c-2.558.233-4.93 1.163-7.256 2.186V16.533h46.8V26.72c-2.372-.977-4.698-1.907-7.256-2.14zm-47.86 9.348v30.326c0 1.2.093 2.744.28 4.65.233 2.093.605 3.442 1.35 5.395h-9.442c-1.162-2.42-2.883-4.977-4.465-7.163l-26.232-35.953v25.72c0 2.93.186 5.86.5 8.8.605 3.116 1.303 5.58 2.372 8.558h-13.953c1.07-2.977 1.814-5.488 2.372-8.605.326-2.93.512-5.814.512-8.744V26.58c0-1.2-.093-2.744-.28-4.65-.186-2.093-.605-3.488-1.35-5.442h9.953c1.2 2.465 2.884 4.977 4.512 7.163l25.628 35.302V33.835c0-2.93-.14-5.86-.512-8.8-.604-3.116-1.302-5.58-2.372-8.605h13.954c-1.07 3.023-1.814 5.488-2.373 8.605a82.558 82.558 0 00-.465 8.884zm-101.21 0c0-2.93-.186-5.86-.512-8.8-.604-3.116-1.302-5.58-2.372-8.558h13.954c-1.07 2.977-1.814 5.488-2.372 8.605-.372 2.93-.512 5.814-.512 8.744v19.814c0 7.302 5.954 13.256 13.256 13.256s13.256-5.953 13.256-13.256V33.928c0-2.93-.186-5.86-.512-8.8-.558-3.116-1.302-5.58-2.372-8.558h13.954c-1.07 2.977-1.768 5.488-2.373 8.605-.325 2.93-.5 5.814-.5 8.744v19.814c0 11.814-9.582 21.442-21.442 21.442-11.814 0-21.442-9.58-21.442-21.442V33.928zm-57.953-17.395H188l.8 3.256c.418 1.256.93 2.465 2.837 5.488 1.72 2.65 6.605 9.535 8.28 11.907l7.628-11.907c1.163-1.72 1.86-3.023 2.232-4 .605-1.488.838-3.163 1.07-4.744h12.698c-1.954 2.326-3.814 4.744-5.442 7.302l-13.2 20.372 15.442 22.8c2.837 3.814 6.232 7.256 6.232 7.256H210.93c.326-2.744.42-4.326-1.256-6.93-.14-.28-9.814-15.814-9.814-15.814l-7.302 10.42c-2.744 4.372-4.418 7.302-5.674 12.372H173.58c4.605-4.8 8.512-10.28 12.093-15.86l9.35-13.907L183.58 28.3c-4.465-6.512-9.348-11.767-9.348-11.767zm259.627 57.21l.232.558h-11.395c.744-1.954 1.116-3.302 1.35-5.442l.28-4.65V49.602h-26.28V64.3c.093 3.35.372 6.65.8 9.954h-11.86c1.07-2.977 1.814-5.488 2.372-8.605.372-2.93.512-5.814.512-8.8V42.626c0-7.814 2.418-14.28 7.255-19.302 5.024-5.023 11.72-7.72 20.42-7.72 2.14 0 3.814.046 6 .28 2.977.28 5.953.65 8.93 1.07v47.163a47.33 47.33 0 00.233 4.651c.232 1.86.558 3.302 1.163 4.977zm-9.535-49.35c-1.396-.42-3.768-.8-6.093-.837-6 0-10.56 1.674-14.42 5.023-3.488 3.023-5.628 7.302-5.767 13.302h26.28V24.393zM599.767 152.3l.233.558h-11.35c.744-2 1.116-3.35 1.35-5.442l.28-4.65V128.16H564v14.697c.093 3.35.372 6.605.8 9.954h-11.86c1.07-3.024 1.814-5.5 2.372-8.605.372-2.93.512-5.86.512-8.744v-14.28c0-7.814 2.42-14.233 7.256-19.303 5.023-5.023 11.72-7.72 20.418-7.72 2.14 0 3.814.046 6 .28 2.977.28 5.954.698 8.93 1.116v47.163c0 1.2.093 2.744.232 4.65.186 1.86.512 3.302 1.116 4.93zm-9.534-49.35c-1.396-.418-3.768-.8-6.093-.837-6 0-10.56 1.674-14.42 5.023-3.488 3.024-5.628 7.303-5.768 13.303h26.28v-17.5zm-47.72 9.583v22.976c0 2.93.186 5.86.5 8.8.558 3.116 1.303 5.58 2.372 8.605H531.44c1.07-3.024 1.767-5.5 2.372-8.605.325-2.93.512-5.86.512-8.744V112.58c0-2.93-.14-5.86-.512-8.8a54.81 54.81 0 00-2.372-8.604h13.953a54.81 54.81 0 00-2.372 8.604 78.235 78.235 0 00-.5 8.745zm-82.092 0v22.976c0 2.93.14 5.86.5 8.8.605 3.116 1.303 5.58 2.372 8.605H449.35c1.07-3.024 1.814-5.5 2.372-8.605.372-2.93.512-5.86.512-8.744V112.58c0-2.93-.14-5.86-.512-8.8-.558-3.07-1.302-5.58-2.372-8.558h13.953a54.85 54.85 0 00-2.372 8.605 76.763 76.763 0 00-.5 8.698zm-40.932-.047v32.233h6.047c2.93 0 5.86-.14 8.8-.512a54.81 54.81 0 008.604-2.372v10.977h-34.5a54.93 54.93 0 002.372-8.605c.372-2.93.5-5.86.5-8.8V112.44c0-2.93-.186-5.86-.5-8.8-.605-3.116-1.303-5.582-2.372-8.605h13.953A54.81 54.81 0 00420 103.65l-.512 8.837zM398.372 152.3l.233.558h-11.35c.744-1.953 1.116-3.302 1.35-5.395l.28-4.65v-14.605h-26.28v14.698c.093 3.35.372 6.604.8 9.953h-11.907c1.07-3.023 1.814-5.488 2.372-8.604.373-2.93.512-5.86.512-8.745v-14.28c0-7.814 2.42-14.232 7.256-19.302 5.023-5.023 11.72-7.72 20.42-7.72 2.14 0 3.813.047 6 .28 2.976.28 5.953.698 8.93 1.116v47.163c0 1.2.093 2.744.232 4.65.186 1.814.512 3.256 1.163 4.884zm-9.58-49.35c-1.396-.418-3.72-.8-6.093-.8-6-.047-10.558 1.627-14.42 4.976-3.488 3.024-5.628 7.303-5.767 13.303h26.28v-17.5zm-67.397 16.7l9.954.8h14.372v4.697c0 18.744-13.302 28.65-27.116 28.65-16.047-.325-29.024-13.44-29.256-29.72.232-17.954 15.907-32.047 34.093-29.5 7.302 1.023 13.442 4.465 18.325 9.907l-4.604 9.535c-4.233-6.837-10.233-11.302-18.605-11.302-11.535 0-20.93 9.488-21.116 21.302.186 11.86 9.58 21.35 21.116 21.35 10.14 0 17.86-6.42 18.744-17.116h-2.8a74.24 74.24 0 00-5.954.232c-2.558.233-4.93 1.163-7.256 2.186l.093-11.023zm-63.488-.792v10.977c-1.954-.744-3.302-1.116-5.442-1.35l-4.14-.232H237.58v16.465H252c2.046 0 3.86-.093 5.442-.28 2.558-.233 4.93-1.163 7.256-2.186v10.604h-38.14c1.07-2.976 1.814-5.488 2.372-8.604.326-2.93.512-5.86.512-8.8V112.44c0-2.93-.186-5.86-.512-8.8-.604-3.116-1.302-5.58-2.372-8.558h38.14v10.65c-2.326-.977-4.698-1.954-7.256-2.186-1.72-.186-3.72-.28-5.954-.28H237.58v17.163h10.233c1.2 0 2.744-.093 4.65-.28 2.93-.233 5.442-1.303 5.442-1.303zm-81.302 25.395c.372-2.93.5-5.86.5-8.744v-22.976c0-2.93-.186-5.86-.5-8.8-.558-3.07-1.303-5.582-2.372-8.558h17.86c15.35 0 27.674 12.976 27.674 28.883s-12.325 28.838-27.58 28.838H174.28c1.023-3.024 1.768-5.535 2.326-8.652zm8.697.466h6.8c10.837.046 19.58-9.2 19.58-20.698s-8.744-20.744-19.44-20.744h-6.884v41.442h-.047zm314.326.604c8.372 0 14.372-4.465 18.604-11.302l4.605 9.535c-4.93 5.442-11.023 8.884-18.372 9.907-18.14 2.558-33.86-11.582-34.093-29.442.233-17.953 15.907-32.046 34.093-29.488 7.302 1.023 13.395 4.465 18.372 9.907l-4.605 9.535C514 107.137 508 102.672 499.628 102.672c-11.535 0-20.93 9.5-21.116 21.303.14 11.86 9.58 21.348 21.116 21.348z" fill="#000"/></svg>