<svg viewBox="0 0 242 242" fill="none" xmlns="http://www.w3.org/2000/svg">
<path fill-rule="evenodd" clip-rule="evenodd" d="M42.0664 0H199.934H224.547H242V17.4532V46.3203V195.68V224.547V242H224.547H199.934H42.0664H17.4532H0V224.547V195.68V46.3203V17.4532V0H17.4532H42.0664ZM193.494 157.496C196.607 145.663 196.607 121.124 196.607 121.124C196.607 121.124 196.732 96.4625 193.494 84.6295C191.749 78.1526 186.642 73.0439 180.165 71.3009C168.332 68.0625 121 68.0625 121 68.0625C121 68.0625 73.6679 68.0625 61.8349 71.1772C55.4817 72.9202 50.2493 78.1526 48.5063 84.6295C45.3916 96.4625 45.3916 121 45.3916 121C45.3916 121 45.3916 145.663 48.5063 157.371C50.2511 163.847 55.358 168.956 61.8349 170.699C73.7916 173.938 121 173.938 121 173.938C121 173.938 168.332 173.938 180.165 170.823C186.642 169.08 191.749 163.973 193.494 157.496ZM145.288 121L105.929 143.669V98.331L145.288 121Z" fill="black"/>
</svg>
