<svg xmlns="http://www.w3.org/2000/svg" xmlns:xlink="http://www.w3.org/1999/xlink" viewBox="0 0 232.83 91.36"><defs><style>.cls-1{isolation:isolate;}.cls-2{fill:url(#linear-gradient);}.cls-10,.cls-3{fill:#fff;}.cls-4{fill:url(#linear-gradient-2);}.cls-12,.cls-5,.cls-6,.cls-7,.cls-8,.cls-9{fill-rule:evenodd;}.cls-5{fill:url(#linear-gradient-3);}.cls-6{fill:url(#linear-gradient-4);}.cls-7{fill:url(#linear-gradient-5);}.cls-8{fill:url(#linear-gradient-6);}.cls-9{fill:url(#linear-gradient-7);}.cls-10{opacity:0.3;mix-blend-mode:screen;}.cls-11{fill:none;}.cls-12,.cls-13{fill:#003a5d;}</style><linearGradient id="linear-gradient" x1="39.38" y1="107.58" x2="39.38" y2="37.09" gradientUnits="userSpaceOnUse"><stop offset="0" stop-color="#005e87"/><stop offset="1" stop-color="#000525"/></linearGradient><linearGradient id="linear-gradient-2" x1="152.82" y1="127.32" x2="152.82" y2="38.28" xlink:href="#linear-gradient"/><linearGradient id="linear-gradient-3" x1="38.39" y1="125.85" x2="38.39" y2="22.39" gradientUnits="userSpaceOnUse"><stop offset="0" stop-color="#009fe3"/><stop offset="1" stop-color="#2d2e83"/></linearGradient><linearGradient id="linear-gradient-4" x1="78.01" y1="125.85" x2="78.01" y2="22.39" xlink:href="#linear-gradient-3"/><linearGradient id="linear-gradient-5" x1="112.83" y1="125.85" x2="112.83" y2="22.39" xlink:href="#linear-gradient-3"/><linearGradient id="linear-gradient-6" x1="160.02" y1="125.85" x2="160.02" y2="22.4" xlink:href="#linear-gradient-3"/><linearGradient id="linear-gradient-7" x1="209.3" y1="105.79" x2="209.3" y2="49.84" gradientUnits="userSpaceOnUse"><stop offset="0" stop-color="#5eb130"/><stop offset="1" stop-color="#063"/></linearGradient></defs><title>logo</title><g class="cls-1"><g id="Capa_2" data-name="Capa 2"><path class="cls-2" d="M59.06,66c-5.24-3.17-11.8-4.12-17.06-4.89a41.62,41.62,0,0,1-8.25-1.72c-1.87-.75-1.87-1.45-1.87-2,0-1.31,0-3.11,7.64-3.11,8.53,0,17.13,1.83,17.13,5.93a4,4,0,0,1,0,.57,3.21,3.21,0,0,0,5.9,2.27c2.66-4.47,4-8.3,4-11.72,0-4.83-2.57-8.65-7.44-11-4.45-2.18-11-3.28-19.61-3.28s-15.21,1.5-20,4.46c-6.08,3.74-9.17,9.64-9.17,17.55s3,13.47,8.82,16.94c4.9,2.9,11,3.86,16.36,4.69C44,82.07,46.9,83,46.9,85.75a3.34,3.34,0,0,1-.8,2.52c-.88.93-3,2-8,2.05a37.17,37.17,0,0,1-11.24-1.6C22,87,22,84.85,22,84.13a3.21,3.21,0,0,0-5.71-2c-3,3.77-4.55,7.4-4.55,10.8s1.53,8.14,8.81,11.44c4.58,2.07,10.78,3.21,17.47,3.21,8.75,0,16.16-1.9,21.43-5.48a20.14,20.14,0,0,0,9-17.38C68.53,76.12,65.34,69.84,59.06,66Z" transform="translate(-9.67 -36.52)"/><path class="cls-3" d="M39.42,37.09c8.56,0,15.16,1.1,19.61,3.28,4.87,2.38,7.44,6.2,7.44,11,0,3.42-1.29,7.26-4,11.72a3.21,3.21,0,0,1-5.9-2.27,4,4,0,0,0,0-.57c0-4.1-8.6-5.93-17.13-5.93-7.64,0-7.64,1.8-7.64,3.11,0,.51,0,1.21,1.87,2A41.62,41.62,0,0,0,42,61.16c5.27.77,11.82,1.72,17.06,4.89,6.28,3.8,9.47,10.08,9.47,18.68a20.14,20.14,0,0,1-9,17.38c-5.27,3.58-12.68,5.48-21.43,5.48-6.69,0-12.89-1.14-17.47-3.21-7.28-3.3-8.81-8-8.81-11.44s1.53-7,4.55-10.8a3.21,3.21,0,0,1,5.71,2c0,.72,0,2.9,4.78,4.59a37.17,37.17,0,0,0,11.24,1.6c5.06,0,7.16-1.12,8-2.05a3.34,3.34,0,0,0,.8-2.52c0-2.77-2.87-3.68-11.48-5C30,79.89,24,78.94,19.06,76c-5.85-3.47-8.82-9.17-8.82-16.94s3.08-13.81,9.17-17.55c4.81-3,11.55-4.46,20-4.46m0-.57h0c-8.58,0-15.41,1.53-20.32,4.54-6.26,3.85-9.44,9.91-9.44,18s3.06,13.84,9.1,17.42c5,3,11.14,3.92,16.56,4.77,8.74,1.36,11,2.28,11,4.47a2.79,2.79,0,0,1-.65,2.13c-.65.7-2.52,1.87-7.63,1.87A36.6,36.6,0,0,1,27,88.18c-4.4-1.55-4.4-3.44-4.4-4.06a3.77,3.77,0,0,0-6.72-2.36c-3.1,3.87-4.67,7.63-4.67,11.16s1.59,8.54,9.14,12c4.65,2.1,10.94,3.26,17.7,3.26,8.86,0,16.38-1.93,21.75-5.58a20.68,20.68,0,0,0,9.29-17.84c0-8.81-3.28-15.26-9.74-19.17q-.5-.3-1-.58l.06,0A3.78,3.78,0,0,0,63,63.42c2.72-4.56,4-8.49,4-12,0-5.06-2.68-9.06-7.76-11.54-4.53-2.22-11.21-3.34-19.86-3.34ZM57.71,64.66c-5-2.51-10.85-3.36-15.63-4.06A41.33,41.33,0,0,1,34,58.91c-1.52-.61-1.52-1.05-1.52-1.44a1.52,1.52,0,0,1,.7-1.57c1-.65,3.15-1,6.38-1a42.14,42.14,0,0,1,11.6,1.41c2.27.68,5,1.93,5,4,0,.11,0,.38,0,.46a3.76,3.76,0,0,0,1.65,3.91Z" transform="translate(-9.67 -36.52)"/><path class="cls-4" d="M217.76,55.5H201.51l-.31,0h0l-.77.07h0l-.21,0h0l-.75.1h0l-.2,0h0l-.28.05-.2,0-.24.05-.09,0-.16,0-.23.05-.07,0-.19,0-.2.05h0l-.25.07-.26.08-.21.06h0l-.19.06-.11,0-.2.07-.29.11-.16.06h0l-.41.16h0L195,57h0l-.21.09-.24.11-.06,0-.17.08-.23.12-.2.1-.19.1-.12.07-.14.08-.23.14,0,0-.16.1-.22.14-.2.13,0,0-.2.13-.19.13-.21.15-.2.14-.24.18-.16.13-.22.18-.16.13-.2.17,0,0-.13.12-.22.2-.16.15-.22.22-.14.14-.22.24-.13.14-.19.21-.15.17-.21.24-.12.14-.21.26-.11.15-.21.28-.1.14-.19.27-.1.15-.19.28-.11.17-.17.27-.1.17-.18.31-.08.14-.18.32-.08.16-.17.33-.08.15-.17.34-.06.13-.17.37-.06.14-.15.35-.07.17-.15.37-.05.14-.15.4,0,.12-.14.41,0,.13-.14.43,0,.12-.13.43,0,.14,0,.14a15.88,15.88,0,0,0-7.57-11.84c-3.8-2.35-9-3.59-15.1-3.59a33.83,33.83,0,0,0-7.29,1,26.81,26.81,0,0,1-5.44.8,18.68,18.68,0,0,1-7.88-1.67,3.26,3.26,0,0,0-3.16.07,3.22,3.22,0,0,0-1.39,1.71A3.2,3.2,0,0,0,133,54.3a22.11,22.11,0,0,1-7.26,1.76,34.16,34.16,0,0,1-6.1-.85,41.83,41.83,0,0,0-8-1c-5.65,0-10.82,1.4-14.57,4-4.7,3.2-7.18,8.11-7.18,14.2v3.48s0,.06,0,.09h0v.39h0v0h0v.06h0v.13a23.23,23.23,0,0,0,3.22,9.92,18.85,18.85,0,0,0-3.76,7V64.39c0-2.69-1.31-6.2-7.27-8.24h3.64A3.21,3.21,0,0,0,89,52.94v-8.2c0-3.38-3.65-6.46-7.65-6.46H72.07a3.21,3.21,0,0,0-3.21,3.21v8.29a6.14,6.14,0,0,0,2.7,4.84,3.21,3.21,0,0,0-3,3.2V97.45c0,9.51,15.77,9.79,17.57,9.79A3.21,3.21,0,0,0,89.38,104v-4.6a10.65,10.65,0,0,0,4.31,6.41,14.88,14.88,0,0,0-3.12,8.7c0,6.18,6.05,12.78,23,12.78,9.35,0,16.22-2.21,20.43-6.58a17,17,0,0,0,4.57-12c0-6.8-2.43-11.49-7.24-13.94A18.89,18.89,0,0,0,125.49,93a20.13,20.13,0,0,0,5.41-3,16.72,16.72,0,0,0,6-10V97.45c0,9.51,15.77,9.79,17.57,9.79a3.21,3.21,0,0,0,3.21-3.21V71.11a25.9,25.9,0,0,1,3.37-.27c1.45,0,2.45.23,2.83.64a3.75,3.75,0,0,1,.46,2.31V97.45c0,2.44,1.25,6.84,9.65,8.81a40.73,40.73,0,0,0,7.85,1h.08a3.16,3.16,0,0,0,2.23-.93,3.23,3.23,0,0,0,1-2.28V92.94a21.67,21.67,0,0,0,3.32,6.7c3.36,4.45,8.2,6.7,14.38,6.7h15c8.87,0,15.2-4.92,17.82-13.84v0l.13-.47,0-.18.11-.44,0-.1.11-.44,0-.21.08-.35.05-.26.07-.34v0l.21-1.15V88.4l.05-.35,0-.21.06-.45,0-.17.06-.49,0-.17c0-.17,0-.34.06-.52v-.13c0-.18,0-.36,0-.55v-.13c0-.19,0-.37,0-.56v-.1c0-.2,0-.4,0-.6v-.1q0-.31,0-.62v-.08q0-.33,0-.67v0c0-.23,0-.45,0-.68v-.06q0-.35,0-.71c0-8.12-1.66-14.44-4.93-18.79S223.92,55.5,217.76,55.5ZM110.66,73.62c0-2.48.35-3.11,3.54-3.11h0a16.08,16.08,0,0,1,2.6.23v3.85h0V75q0,.17,0,.33h0c-.16,2.91-.76,3.22-3.09,3.23-1.32,0-2.14-.18-2.43-.52s-.58-1.6-.6-3.39Zm7.6,36c0,.28-.07.33-.32.47-.52.3-2,.79-5.7.79-5.22,0-8.45-.61-10.22-2.07a57.26,57.26,0,0,0,8.6.54h4.19A14.56,14.56,0,0,1,118.26,109.64Zm88-38.12c.37-.39,1.39-.84,4.11-.84h0c2,0,3.41.3,3.93.85s.64,1.45.64,3.2v12.6c0,1.69-.22,2.64-.65,3.09s-1.88.84-3.91.84-3.52-.3-4.08-.88-.66-1.48-.66-3.26V74.73C205.63,73,205.83,72,206.26,71.52Z" transform="translate(-9.67 -36.52)"/><path class="cls-3" d="M81.3,38.28c4,0,7.65,3.08,7.65,6.46v8.2a3.21,3.21,0,0,1-3.21,3.21H82.11c6,2,7.27,5.55,7.27,8.24v29.1a18.85,18.85,0,0,1,3.76-7,23.23,23.23,0,0,1-3.22-9.92V75.9h0s0-.07,0-.09V72.34c0-6.1,2.48-11,7.18-14.2,3.75-2.55,8.92-4,14.57-4a41.83,41.83,0,0,1,8,1,34.16,34.16,0,0,0,6.1.85A22.11,22.11,0,0,0,133,54.3a3.2,3.2,0,0,1,4.08,1.79,3.22,3.22,0,0,1,4.55-1.78A18.69,18.69,0,0,0,149.51,56a26.81,26.81,0,0,0,5.44-.8,33.83,33.83,0,0,1,7.29-1c6.08,0,11.3,1.24,15.1,3.59a15.88,15.88,0,0,1,7.57,11.84l0-.14,0-.14.13-.43,0-.12.14-.43,0-.13.14-.41,0-.12.15-.4.05-.14.15-.37.07-.17.15-.35.06-.14.17-.37.06-.13.17-.34.08-.15.17-.33.08-.16.18-.32.08-.14.18-.31.1-.17.17-.27.11-.17.19-.28.1-.15.19-.27.1-.14.21-.28.11-.15.21-.26.12-.14.21-.24.15-.17.19-.21.13-.14.22-.24.14-.14.22-.22.16-.15.22-.2.13-.12,0,0,.2-.17.16-.13.22-.18.16-.13.24-.18.2-.14.21-.15.19-.13.2-.13,0,0,.2-.13.22-.14.16-.1,0,0,.23-.14.14-.08.12-.07.19-.1.2-.1.23-.12.17-.08.06,0,.24-.11L195,57h0l.23-.1h0l.41-.16h0l.16-.06.29-.11.2-.07.11,0,.19-.06h0l.21-.06.26-.08.25-.07h0l.2-.05.19,0,.07,0,.23-.05.16,0,.09,0,.24-.05.2,0,.28-.05h0l.2,0h0l.75-.1h0l.21,0h0l.77-.07h0l.31,0h16.25c6.16,0,11,2.26,14.35,6.72S237,72.89,237,81q0,.36,0,.71v.06c0,.23,0,.46,0,.68v0q0,.34,0,.67v.08q0,.31,0,.62V84c0,.2,0,.4,0,.6v.1c0,.19,0,.38,0,.56v.13c0,.19,0,.37,0,.55V86c0,.17,0,.35-.06.52l0,.17-.06.49,0,.17-.06.45,0,.21-.05.35v.08l-.21,1.15v0l-.07.34-.05.26-.08.35,0,.21-.11.44,0,.1-.11.44,0,.18-.13.47v0c-2.62,8.92-9,13.84-17.82,13.84h-15c-6.18,0-11-2.25-14.38-6.7a21.67,21.67,0,0,1-3.32-6.7V104a3.23,3.23,0,0,1-1,2.28,3.16,3.16,0,0,1-2.23.93h-.08a40.72,40.72,0,0,1-7.85-1c-8.4-2-9.65-6.37-9.65-8.81V73.79a3.75,3.75,0,0,0-.46-2.31c-.37-.41-1.38-.64-2.83-.64a25.9,25.9,0,0,0-3.37.27V104a3.21,3.21,0,0,1-3.21,3.21c-1.8,0-17.57-.28-17.57-9.79V80a16.72,16.72,0,0,1-6,10,20.12,20.12,0,0,1-5.41,3,18.89,18.89,0,0,1,5.88,1.76c4.8,2.45,7.24,7.14,7.24,13.94a17,17,0,0,1-4.57,12c-4.21,4.36-11.09,6.58-20.43,6.58-17,0-23-6.6-23-12.78a14.88,14.88,0,0,1,3.12-8.7,10.65,10.65,0,0,1-4.31-6.41V104a3.21,3.21,0,0,1-3.21,3.21c-1.8,0-17.57-.28-17.57-9.79V57.81a3.21,3.21,0,0,1,3-3.2,6.14,6.14,0,0,1-2.7-4.84V41.49a3.21,3.21,0,0,1,3.21-3.21H81.3m32.39,40.25c2.33,0,2.94-.32,3.09-3.23h0q0-.16,0-.33v-.37h0V70.73a16.08,16.08,0,0,0-2.6-.23h0c-3.19,0-3.54.63-3.54,3.11v1c0,1.8.21,2.95.6,3.39s1.11.52,2.43.52m96.68,12.73c2,0,3.38-.29,3.91-.84s.64-1.41.65-3.09V74.73c0-1.75-.2-2.73-.64-3.2s-1.89-.85-3.93-.85h0c-2.71,0-3.73.46-4.11.84s-.63,1.44-.63,3.21V87.12c0,1.77.2,2.78.66,3.26s1.93.88,4.08.88m-98.13,19.65c3.74,0,5.18-.5,5.7-.79.25-.14.31-.19.32-.47a14.56,14.56,0,0,0-3.45-.26h-4.19a57.26,57.26,0,0,1-8.6-.54c1.78,1.45,5,2.07,10.22,2.07M81.3,37.72H72.07a3.78,3.78,0,0,0-3.77,3.77v8.29a6.45,6.45,0,0,0,2.06,4.56A3.79,3.79,0,0,0,68,57.81V97.45c0,10.06,16.27,10.35,18.13,10.35A3.78,3.78,0,0,0,89.94,104v-1.52a11.19,11.19,0,0,0,3,3.46A15,15,0,0,0,90,114.54c0,6.45,6.2,13.34,23.6,13.34,9.51,0,16.52-2.27,20.84-6.75a17.58,17.58,0,0,0,4.73-12.41,22.22,22.22,0,0,0-.72-5.87c4.47,4.77,14.58,4.95,16,4.95a3.78,3.78,0,0,0,3.77-3.77V71.61a23.33,23.33,0,0,1,2.81-.2c1.94,0,2.37.41,2.41.45s.31.46.31,1.93V97.45c0,2.61,1.31,7.3,10.09,9.36a41.16,41.16,0,0,0,8,1h.1a3.72,3.72,0,0,0,2.63-1.09,3.79,3.79,0,0,0,1.12-2.68V96A20.46,20.46,0,0,0,188,100c3.47,4.6,8.46,6.93,14.83,6.93h15a18.42,18.42,0,0,0,11.6-3.69,20.13,20.13,0,0,0,6.76-10.55v0l.14-.49,0-.18.12-.45,0-.11.11-.45,0-.21.06-.28,0-.08.06-.27v0l.06-.31v0l.2-1.15v0h0v-.1l0-.3,0-.21v-.1l0-.36,0-.17.06-.5,0-.17c0-.17,0-.35.06-.52V86c0-.18,0-.37,0-.56v-.13c0-.19,0-.38,0-.57v-.1c0-.21,0-.41,0-.61v-.1c0-.21,0-.42,0-.63v-.07c0-.23,0-.45,0-.68h0v0c0-.22,0-.45,0-.68v-.06c0-.24,0-.48,0-.72,0-8.25-1.7-14.68-5-19.12-3.47-4.61-8.45-6.95-14.8-6.95h-16.3l-.3,0h0l-.76.07h0l-.22,0h0l-.75.1h-.07l-.19,0h0l-.29.05-.21,0-.26.05-.08,0-.17,0-.21,0h0l-.07,0-.2,0-.21.06h0l-.26.07-.27.08-.21.06h0l-.19.06-.11,0L196,56l-.29.11,0,0-.13,0,0,0-.4.16h0l-.21.09h0l-.1,0-.11,0-.21.1,0,0-.06,0-.17.08-.21.11h0l-.2.1-.15.08,0,0-.12.07,0,0-.11.06-.24.14,0,0-.15.09h0l-.21.13,0,0,0,0-.17.11h0l0,0L192,58l0,0-.18.12-.22.16-.2.14-.25.19-.17.13-.24.19-.16.13-.18.15,0,0-.05,0-.14.12-.15.13-.07.07h0l-.09.09-.06.06-.15.15-.07.07-.14.14-.24.25-.13.13-.2.23-.15.17-.21.25-.12.15-.22.27-.12.15-.21.29-.11.15-.2.28-.1.15-.17.26,0,0-.11.17-.18.29-.11.18-.18.31h0l-.08.14-.18.33-.09.16-.18.34-.08.16-.17.35-.06.13,0,.06-.14.32-.06.14-.15.36-.07.17-.15.38-.06.15-.1.26a16.32,16.32,0,0,0-7.41-10.06c-3.89-2.4-9.21-3.67-15.4-3.67a34.26,34.26,0,0,0-7.4,1,26.44,26.44,0,0,1-5.33.79,18.19,18.19,0,0,1-7.62-1.61,3.76,3.76,0,0,0-4.84,1.13,3.77,3.77,0,0,0-4.25-1.16,21.63,21.63,0,0,1-7.06,1.73,33.79,33.79,0,0,1-6-.84,42.25,42.25,0,0,0-8.1-1c-5.76,0-11,1.44-14.89,4.05a16.34,16.34,0,0,0-6.81,9.6V64.39c0-2.38-1-5.47-5.09-7.68h.89a3.78,3.78,0,0,0,3.77-3.77v-8.2A6.59,6.59,0,0,0,87,39.81a9,9,0,0,0-5.69-2.09ZM113.69,78c-1.71,0-2-.31-2-.32s-.44-.7-.46-3v-1c0-1.07.07-1.76.4-2.08s1.11-.47,2.57-.47a15.08,15.08,0,0,1,2,.15v3.36h0v.36c0,.09,0,.19,0,.29h0v0c-.07,1.32-.24,2-.56,2.31s-1,.37-2,.37Zm96.68,12.73c-2.61,0-3.42-.44-3.67-.71s-.5-1.31-.5-2.87V74.73c0-1.55.16-2.49.47-2.82.15-.16.87-.67,3.7-.67s3.37.52,3.52.68c.32.34.48,1.29.48,2.81V87.32a4.73,4.73,0,0,1-.5,2.71c-.15.15-.85.66-3.51.66ZM89.94,90.34V80.12a23.1,23.1,0,0,0,2.51,6.29,24,24,0,0,0-2.51,3.93Zm37.48,2.47a20,20,0,0,0,3.83-2.38,16.87,16.87,0,0,0,5.09-6.67V97.45a8.82,8.82,0,0,0,0,.91,12.83,12.83,0,0,0-4.76-4.08,17.75,17.75,0,0,0-4.2-1.48Zm-15.19,17.53a31.53,31.53,0,0,1-6.65-.55c1.83.12,3.57.15,5,.15h4.19c.73,0,1.32,0,1.78,0a20.5,20.5,0,0,1-4.34.35Z" transform="translate(-9.67 -36.52)"/><path class="cls-5" d="M38.44,38.81c13.93,0,23.84,2.91,23.84,11.11,0,2.73-1.11,6.07-3.5,10.08a6,6,0,0,0,.09-1.2c0-7.6-12.31-9.14-20.34-9.14-6.32,0-10.85,1.11-10.85,6.32,0,12.47,36.66-.94,36.66,27.25,0,13.07-11.28,19.65-27.26,19.65C25.88,102.89,14,99.39,14,91.45c0-2.48,1.11-5.38,3.85-8.8,0,7.77,12,9.4,19.23,9.4,8.29,0,12-2.73,12-7.77,0-14.1-36.66-.68-36.66-26.66,0-14.44,11.71-18.8,26-18.8Z" transform="translate(-9.67 -36.52)"/><path class="cls-3" d="M37.07,103.17a41.65,41.65,0,0,1-15.85-2.77c-4.91-2.1-7.51-5.2-7.51-9,0-2.72,1.32-5.73,3.91-9l.5-.63v.81c0,3.3,2.26,5.77,6.73,7.35a39.32,39.32,0,0,0,12.21,1.77c7.92,0,11.77-2.45,11.77-7.49,0-5.74-6.47-6.75-14-7.92-5.07-.79-10.83-1.69-15.2-4.26-5.05-3-7.51-7.71-7.51-14.48C12.18,45,21,38.53,38.44,38.53h0c16,0,24.12,3.83,24.12,11.39,0,2.84-1.19,6.28-3.54,10.23l-.85,1.42L58.5,60a5.77,5.77,0,0,0,.08-1.14c0-3.24-2.34-5.64-7-7.15A45.69,45.69,0,0,0,38.52,50C31,50,28,51.7,28,56c0,4.74,5.57,5.55,12.63,6.58,5.29.77,11.28,1.64,16,4.46,5.43,3.27,8.07,8.58,8.07,16.21C64.61,95.72,54.32,103.17,37.07,103.17ZM17.6,83.42c-2.2,2.91-3.32,5.6-3.32,8,0,4.44,3.9,7,7.17,8.44a41.08,41.08,0,0,0,15.62,2.72c16.89,0,27-7.24,27-19.36C64,66.56,51,64.66,40.5,63.13c-7-1-13.12-1.91-13.12-7.14a5.44,5.44,0,0,1,3.21-5.37c1.74-.84,4.26-1.24,7.92-1.24,6.2,0,20.61.92,20.62,9.42C61,55.39,62,52.41,62,49.92c0-7.18-7.93-10.83-23.56-10.83-17.05,0-25.7,6.23-25.7,18.52C12.74,72.33,24.55,74.17,35,75.8,42.71,77,49.4,78,49.4,84.27c0,5.34-4.15,8.06-12.33,8.06a39.89,39.89,0,0,1-12.4-1.8C20.3,89,17.92,86.6,17.6,83.42Z" transform="translate(-9.67 -36.52)"/><path class="cls-6" d="M70.83,56.33c1.2,0,14.36.26,14.36,6.58v39.64s-14.36,0-14.36-6.58V56.33ZM71.08,40h9.23c2.57,0,4.44,2,4.44,3.25v8.2H75.61c-2.65,0-4.53-1.62-4.53-3.16V40Z" transform="translate(-9.67 -36.52)"/><path class="cls-3" d="M85.47,102.83h-.28c-.6,0-14.64-.08-14.64-6.86V56.05h.28c.6,0,14.64.08,14.64,6.86ZM71.11,56.62V96c0,5.72,11.8,6.24,13.79,6.29V62.91C84.9,57.18,73.1,56.67,71.11,56.62ZM85,51.74H75.61c-2.88,0-4.81-1.78-4.81-3.44V39.73h9.51c2.74,0,4.73,2.11,4.73,3.53ZM71.37,40.29v8c0,1.36,1.74,2.88,4.25,2.88h8.86V43.26c0-1.17-1.79-3-4.16-3Z" transform="translate(-9.67 -36.52)"/><path class="cls-7" d="M133.13,74.19c0,10.08-7.18,16.06-20.42,16.06a30.11,30.11,0,0,1-10.6-2.14,12.12,12.12,0,0,0-.34,2.39c0,3.16,4.44,3.84,9.48,3.84h2.82c9.74,0,20.34-.68,20.34,12.9,0,9.31-6.84,15.38-21.79,15.38-13.16,0-19.83-4.19-19.83-9.57,0-2.56,1.11-5.13,3.42-8,1.37,7.35,9.91,7.6,15,7.6,6.49,0,9.23-1.37,9.23-4.61,0-3-2.74-3.33-6.67-3.33h-4.19c-10.17,0-18.37-1.45-18.37-9.82,0-3.5,2-6.24,5-9.91-2.46-2.14-4-7.17-4.16-10.13v-.12h0v-.05h0v-.07h0v-.11h0s0-.09,0-.13V70.86c0-10.94,9.31-15,18.54-15,4.7,0,9.83,1.88,14.1,1.88,2.14,0,4.7-.6,8.37-2V74.19ZM119,66.75h0a18.8,18.8,0,0,0-5.81-.94c-4.44,0-6.75,1.54-6.75,6.32v1h0c0,4.56,1.11,7.12,6.24,7.12,4.56,0,6.08-2.24,6.29-6.26v0h0c0-.13,0-.27,0-.4h0v-.21h0c0-.06,0-.13,0-.19h0c0-.07,0-.14,0-.21V66.75Z" transform="translate(-9.67 -36.52)"/><path class="cls-3" d="M112.62,122.91c-6.27,0-11.45-1-15-2.8-3.36-1.74-5.13-4.18-5.13-7.06,0-2.61,1.11-5.22,3.48-8.21l.39-.49.11.61c1.37,7.37,10.42,7.37,14.76,7.37,6.36,0,8.95-1.25,8.95-4.33,0-2.58-2.15-3-6.38-3h-4.19C99.94,105,91,103.74,91,94.86c0-3.62,2.12-6.52,4.93-9.88C93.45,82.64,92,77.6,91.85,74.84v-.19l.28,0-.28,0V70.86c0-5.16,2-9.13,5.93-11.81,3.24-2.21,7.82-3.42,12.89-3.42a39.67,39.67,0,0,1,7.44,1,36.09,36.09,0,0,0,6.66.9A24.6,24.6,0,0,0,133,55.56l.38-.14V74.19c0,10.39-7.55,16.34-20.71,16.34a30.72,30.72,0,0,1-10.4-2,10.62,10.62,0,0,0-.26,2c0,2.43,2.92,3.56,9.2,3.56h4.15c6.12,0,12.44,0,16.12,3.63,2.13,2.13,3.17,5.25,3.17,9.56C134.69,117.35,126.85,122.91,112.62,122.91ZM96.06,105.68c-2,2.68-3,5-3,7.38,0,2.65,1.67,4.91,4.83,6.55,3.44,1.79,8.53,2.73,14.72,2.73,7.17,0,12.67-1.39,16.33-4.14a12.94,12.94,0,0,0,5.17-11c0-4.15-1-7.15-3-9.16-3.51-3.5-9.72-3.48-15.72-3.46h-4.16c-4.19,0-9.77-.43-9.77-4.13a9.42,9.42,0,0,1,.18-1.63c.17-.94.19-1,.45-1h.06l.05,0A30.08,30.08,0,0,0,112.71,90c12.8,0,20.14-5.75,20.14-15.78v-18a24.29,24.29,0,0,1-8.09,1.84,36.48,36.48,0,0,1-6.77-.91,39.26,39.26,0,0,0-7.33-1c-8.83,0-18.26,3.85-18.26,14.67v3.77l-.28,0h.28v.13c.18,2.75,1.6,7.8,4.07,9.95l.21.18-.18.21c-2.91,3.48-5,6.21-5,9.73,0,8.38,8.69,9.54,18.09,9.54h4.19c3.8,0,6.95.27,6.95,3.61s-2.84,4.9-9.51,4.9C106.87,112.92,97.88,112.92,96.06,105.68Zm16.64-25.14c-5.38,0-6.49-2.83-6.52-7.4v-1c0-2.42.59-4.11,1.81-5.17s2.79-1.44,5.22-1.44h0a19.17,19.17,0,0,1,5.9,1l.19.07v6.35c0,.07,0,.14,0,.22v.44c0,.14,0,.28,0,.41v0C119,78.58,117.07,80.54,112.71,80.54Zm-6-7.41c0,4.44,1,6.84,6,6.84,4,0,5.79-1.74,6-6v0c0-.14,0-.28,0-.41v-.43c0-.07,0-.14,0-.21V67a18.74,18.74,0,0,0-5.53-.86h0c-2.29,0-3.83.41-4.85,1.3s-1.61,2.49-1.61,4.74v1l-.28,0Z" transform="translate(-9.67 -36.52)"/><path class="cls-8" d="M166.56,72.31c0-4-1.62-6.15-6.49-6.15a37.45,37.45,0,0,0-6.58.77v35.62s-14.36,0-14.36-6.58V55.65a21.25,21.25,0,0,0,9.4,2.05c4.19,0,8.2-1.79,12.73-1.79,9.57,0,19.65,3.25,19.65,15.12v31.52s-14.35-.17-14.35-6.58V72.31Z" transform="translate(-9.67 -36.52)"/><path class="cls-3" d="M181.19,102.83h-.29c-.6,0-14.63-.25-14.63-6.86V72.31c0-4.17-1.8-5.87-6.21-5.87a36.57,36.57,0,0,0-6.3.72v35.68h-.28c-.6,0-14.64-.08-14.64-6.86V55.17l.42.23a21.19,21.19,0,0,0,9.27,2,28.89,28.89,0,0,0,6.05-.86,31.56,31.56,0,0,1,6.68-.93c7.44,0,19.93,2,19.93,15.4ZM139.41,56.1V96c0,5.73,11.8,6.24,13.79,6.29V66.7l.22,0a38.06,38.06,0,0,1,6.64-.78c4.69,0,6.78,2,6.78,6.44V96c0,5.57,11.79,6.22,13.79,6.29V71c0-12.91-12.14-14.84-19.37-14.84a31.12,31.12,0,0,0-6.56.92,29.3,29.3,0,0,1-6.17.88A22.15,22.15,0,0,1,139.41,56.1Z" transform="translate(-9.67 -36.52)"/><path class="cls-9" d="M201.82,101.65c-10.09,0-16.07-7.09-16.07-22.12a48.38,48.38,0,0,1,.26-5.17h0q0-.29.07-.58v0c0-.18,0-.37.07-.55v-.05c0-.17.05-.35.08-.52v-.07l.08-.5V72l.09-.47,0-.09.09-.46,0-.09.1-.44,0-.1.1-.43,0-.1.11-.42,0-.1.11-.39,0-.12.11-.38,0-.12.12-.36,0-.13.12-.35,0-.12.13-.33.05-.14.13-.31.06-.14.13-.31.06-.13.14-.3.06-.13.14-.29.07-.14.14-.27.07-.14.14-.26.08-.13.15-.25.08-.14.15-.24.09-.13.15-.23.09-.13.16-.22.09-.13.16-.21.1-.13.16-.2.11-.13.16-.19.11-.12.17-.19.12-.12.17-.18.12-.12.17-.17.12-.12.17-.16.13-.11.17-.15.14-.11.17-.14.14-.11.18-.14.14-.1.18-.13.15-.1.18-.12.15-.1.18-.12.16-.1.18-.11.17-.09.19-.1.17-.09.19-.1.18-.08.19-.09.18-.08.19-.08.19-.08.19-.07.19-.07.2-.07.19-.06.2-.07.19-.06.2-.06.2-.06.2-.05.21-.05.21,0,.2,0,.22,0,.21,0,.21,0,.23,0,.2,0,.24,0,.19,0,.23,0,.21,0,.27,0h.18l.31,0h16c10,0,16.06,7.09,16.06,22.3,0,.23,0,.45,0,.67v.05c0,.22,0,.44,0,.65h0c0,.21,0,.43,0,.64v.06c0,.2,0,.39,0,.59v.09q0,.29,0,.57V83c0,.18,0,.35,0,.53v.13l0,.5v.13c0,.16,0,.31,0,.47l0,.16-.06.46,0,.15-.06.42,0,.2-.05.35,0,.24-.06.34,0,.25-.05.29-.06.3-.05.24-.07.31,0,.2-.09.39,0,.1-.1.4,0,.15h0l-.12.42v0c-2.3,7.81-7.48,11.55-14.74,11.55Zm15.34-15.78h0V85.8h0v-.1h0V73.25c0-4.7-1.37-7.26-7.78-7.26-6.58,0-7.95,2.56-7.95,7.26v8.67h0v3.72c0,4.7,1.37,7.35,7.95,7.35,6.3,0,7.73-2.56,7.78-7.11Zm0-12.63Z" transform="translate(-9.67 -36.52)"/><path class="cls-3" d="M216.78,101.94h-15c-10.7,0-16.35-7.75-16.35-22.41a48.91,48.91,0,0,1,.26-5.19v0q0-.29.07-.58v0c0-.18,0-.36.07-.54l0-.12c0-.16,0-.32.07-.47V72.5l.08-.5v-.08l.09-.48,0-.09.09-.46,0-.09.09-.39,0-.16.1-.44,0-.1.1-.4,0-.12.11-.39,0-.13.12-.38,0-.12.12-.37,0-.13.12-.34.06-.16.12-.32.05-.13.13-.32v0l0-.11.13-.31.06-.13.14-.31.06-.13.14-.29.07-.14.14-.28.08-.14.14-.26.08-.13.13-.23.1-.17.15-.24.09-.14.15-.23.09-.13.16-.22.1-.13.16-.22.11-.14.16-.2.11-.13.16-.19.14-.16.14-.16.12-.13.11-.11.18-.18.18-.17.13-.12.18-.16.13-.12.18-.16,0,0,.11-.09.18-.14.14-.11.18-.14.15-.11.07,0,.12-.09.5-.33.19-.12.12-.07.1-.06.14-.08.53-.29.19-.1.1,0,.27-.13.14-.06.09,0,.15-.07.26-.1.13-.05.15-.06.09,0,.15-.05.15,0,.11,0,.14,0,.2-.06.21-.06.21-.06.2-.05.14,0,.07,0,.21,0,.13,0,.11,0,.18,0,.16,0,.1,0,.17,0,.18,0L200,57l.45,0h.24l.57,0h15.55c5.19,0,9.23,1.87,12,5.56s4.34,9.55,4.34,17c0,.23,0,.45,0,.68v.06c0,.22,0,.44,0,.65s0,.45,0,.66v.06c0,.2,0,.4,0,.59v.09q0,.29,0,.57V83c0,.18,0,.36,0,.53l-.07.77c0,.16,0,.31,0,.47l0,.16,0,.38-.12.85-.05.36-.15.84-.06.29-.06.3-.05.25-.07.31,0,.2-.09.39,0,.19-.08.31,0,.15-.12.43v0C229.53,97.87,224.34,101.94,216.78,101.94ZM186.3,74.37v0a48.31,48.31,0,0,0-.26,5.14c0,14.29,5.46,21.84,15.79,21.84h15c7.39,0,12.26-3.82,14.47-11.34v0l.12-.42,0-.15.08-.31,0-.18.09-.38,0-.19.07-.31.05-.24.06-.3.05-.28.14-.83.05-.35.12-.84,0-.38,0-.16c0-.16,0-.31,0-.47l.07-.75q0-.26,0-.53v-.09c0-.19,0-.37,0-.56V82.2c0-.19,0-.39,0-.58v-.06c0-.21,0-.42,0-.64s0-.45,0-.66V80.2c0-.22,0-.44,0-.67,0-14.4-5.46-22-15.78-22H201.25l-.56,0h-.24l-1,.09h-.11l-.49.07-.17,0-.15,0-.11,0-.16,0-.17,0-.12,0-.12,0-.2,0-.08,0-.13,0-.19.05-.2.05-.2.06-.19.06-.13,0-.11,0-.14,0-.14.05-.09,0-.15.05-.12,0-.25.1-.13.06-.1,0-.13.06-.26.12-.09,0-.19.09-.51.27-.13.08-.1.06-.11.06-.18.11-.48.32-.11.08-.07,0-.14.1-.17.13-.14.11-.17.14-.11.09,0,0-.17.15-.13.11-.17.16-.12.12-.17.17-.17.17-.1.11-.12.12-.14.15-.13.15-.16.19-.11.13-.15.19-.1.13-.16.21-.09.13-.15.22-.09.13-.15.23-.08.13-.15.24-.1.16-.13.22-.07.13-.14.26-.07.14-.14.27-.07.13-.14.28-.06.13-.13.3-.06.13-.13.3,0,.11v0l-.12.31-.05.14-.12.31-.05.14-.12.34,0,.12-.12.36,0,.12-.11.37,0,.12-.11.39,0,.12-.1.39,0,.1-.1.43,0,.15-.08.39,0,.09-.09.45,0,.09-.09.47v.08l-.08.49v.07l-.07.47v.1c0,.19-.05.37-.07.54v0C186.34,74,186.32,74.18,186.3,74.37Zm23.09,18.9c-6.85,0-8.23-2.92-8.23-7.63V73.25c0-2.75.47-4.42,1.58-5.59,1.27-1.33,3.38-2,6.64-2h0c6.71,0,8.06,2.89,8.06,7.54V85.6h0v.29C217.39,90.44,216,93.27,209.38,93.27Zm0-27c-3.1,0-5.08.57-6.23,1.78-1,1.06-1.43,2.61-1.43,5.2V85.64c0,4.58,1.22,7.07,7.66,7.07,6.07,0,7.39-2.39,7.49-6.54h0v-.37h0V73.25c0-4.53-1.19-7-7.5-7Z" transform="translate(-9.67 -36.52)"/><path class="cls-10" d="M49.12,84.27c0,5-3.76,7.77-12,7.77-7.18,0-19.23-1.62-19.23-9.4C15.11,86.07,14,89,14,91.45c0,7.94,11.88,11.45,23.07,11.45,16,0,27.26-6.58,27.26-19.65,0-9.47-4.14-14.25-9.63-16.89-17.8-3.51-31.52-4.44-41.8-4.19C17,82,49.12,71.08,49.12,84.27Z" transform="translate(-9.67 -36.52)"/><path class="cls-10" d="M85.18,102.55V73.78L75.07,71.1,70.83,70V96C70.83,102.55,85.18,102.55,85.18,102.55Z" transform="translate(-9.67 -36.52)"/><path class="cls-10" d="M96.3,85c-3.08,3.67-5,6.41-5,9.91,0,8.37,8.2,9.82,18.37,9.82h4.19c3.93,0,6.67.34,6.67,3.33,0,3.25-2.74,4.61-9.23,4.61-5.13,0-13.67-.26-15-7.6-2.31,2.91-3.42,5.47-3.42,8,0,5.38,6.67,9.57,19.83,9.57,15,0,21.79-6.07,21.79-15.38,0-13.58-10.6-12.9-20.34-12.9h-2.82c-5,0-9.48-.68-9.48-3.84a12.12,12.12,0,0,1,.34-2.39,30.11,30.11,0,0,0,10.6,2.14c7.76,0,13.43-2.05,16.8-5.78-11.88-2.36-24.27-5.45-37.29-8.85C92.6,78.62,94,83,96.3,85Z" transform="translate(-9.67 -36.52)"/><path class="cls-10" d="M153.48,102.55V88.23c-4.71-.5-9.49-1.17-14.36-2V96C139.13,102.55,153.48,102.55,153.48,102.55Z" transform="translate(-9.67 -36.52)"/><path class="cls-10" d="M166.56,89.14V96c0,6.4,14.35,6.58,14.35,6.58V88.88A139.85,139.85,0,0,1,166.56,89.14Z" transform="translate(-9.67 -36.52)"/><path class="cls-10" d="M201.82,101.65h15c7.26,0,12.45-3.74,14.74-11.55v0l.12-.42h0l0-.15.1-.4,0-.1.09-.39,0-.2.07-.31.05-.24.06-.3.05-.29,0-.25.06-.34,0-.24.05-.35,0-.2.06-.42,0-.15.06-.46,0-.16c0-.16,0-.31,0-.47v-.13l0-.5v-.13c0-.17,0-.35,0-.53v-.09q0-.28,0-.57v-.09c0-.19,0-.39,0-.59v-.06c0-.21,0-.43,0-.64h0c0-.21,0-.43,0-.65V80.2c0-.22,0-.45,0-.67a43.52,43.52,0,0,0-.63-7.73q-5.42,3.49-11.4,6.58-1.82.89-3.65,1.7v5.56h0v.1h0v.08h0c0,4.55-1.48,7.11-7.78,7.11-6.58,0-7.95-2.65-7.95-7.35v-.07a109.88,109.88,0,0,1-14.83,2.78C188.6,97.35,194,101.65,201.82,101.65Z" transform="translate(-9.67 -36.52)"/><path class="cls-11" d="M106.47,72.14v1h0c0,4.56,1.11,7.12,6.24,7.12,4.56,0,6.08-2.24,6.29-6.26v0h0c0-.13,0-.27,0-.4h0v-.21h0c0-.06,0-.13,0-.19h0c0-.07,0-.14,0-.21V66.75a18.8,18.8,0,0,0-5.81-.94C108.77,65.81,106.47,67.35,106.47,72.14Z" transform="translate(-9.67 -36.52)"/><path class="cls-12" d="M145.24,119.88v5.36a2.17,2.17,0,0,0,.19,1.19,1,1,0,0,0,1,.58l.41,0a.3.3,0,0,1,.32.33c0,.43-.87.54-1.24.54a2,2,0,0,1-1.66-.76,2.51,2.51,0,0,1-.38-1.57v-5.65H143c-.21,0-.24,0-.24-.25,0-.43,0-.46.24-.48h.84v-1a.65.65,0,0,1,.24-.58l.73-.68c.16-.15.22-.18.27-.18s.17.21.17.41v2h1.38c.19,0,.25,0,.25.23,0,.44,0,.49-.24.49Z" transform="translate(-9.67 -36.52)"/><path class="cls-12" d="M153.42,126c0,.74-.1,1.15-.68,1.48a5.17,5.17,0,0,1-2.23.44c-.43,0-2.77,0-2.77-2.24,0-1.9,1.77-2.44,4.31-3.21v-.84c0-.64,0-1.76-1.19-1.76a1.4,1.4,0,0,0-1.33,1.07c-.11.31-.24.71-.71.71a.65.65,0,0,1-.63-.69c0-1,1.19-2,2.88-2,2.33,0,2.35,1.76,2.36,2.64V126ZM152,123.21h0c-1.73.58-2.87,1-2.87,2.23a1.49,1.49,0,0,0,1.62,1.56c1.24,0,1.25-.76,1.25-1.2v-2.59Z" transform="translate(-9.67 -36.52)"/><path class="cls-12" d="M155.19,115.35c0-.25.11-.26.32-.26h.79c.24,0,.3,0,.3.26v12c0,.26-.1.3-.3.3h-.81c-.25,0-.3,0-.3-.3v-12Z" transform="translate(-9.67 -36.52)"/><path class="cls-12" d="M158.48,115.35c0-.25.11-.26.32-.26h.79c.24,0,.3,0,.3.26v12c0,.26-.1.3-.3.3h-.81c-.25,0-.3,0-.3-.3v-12Z" transform="translate(-9.67 -36.52)"/><path class="cls-12" d="M162.54,123.16c.13,2.31,1.25,3.38,2.46,3.38a2.52,2.52,0,0,0,2.18-1.45c.22-.4.27-.48.46-.48s.32.05.32.39a3.29,3.29,0,0,1-3.17,2.89,3.15,3.15,0,0,1-2.95-1.91,6.69,6.69,0,0,1,0-5.19,3.23,3.23,0,0,1,2.93-1.83,3,3,0,0,1,3,2.93c0,.46-.27.49-.46.53l-4.85.74Zm3.79-1.42h0a1.84,1.84,0,0,0-1.69-1.85c-1.28,0-1.93,1-2.09,2.46l3.79-.61Z" transform="translate(-9.67 -36.52)"/><path class="cls-12" d="M170.79,127.41c0,.26-.1.28-.29.28h-.81c-.22,0-.32,0-.32-.28v-6.89c0-.58.06-.77.41-1a5.37,5.37,0,0,1,2.52-.58c.78,0,1.63.18,1.63,1a.67.67,0,0,1-.65.71c-.28,0-.4-.13-.67-.45a1.07,1.07,0,0,0-.87-.41c-.93,0-.95.72-1,1.15v6.49Z" transform="translate(-9.67 -36.52)"/><path class="cls-12" d="M185.05,125.94a1.43,1.43,0,0,1-.22.92c-.54.79-2.09,1-2.93,1-2.25,0-3.72-1.48-3.72-4.2,0-2.26,1.27-4.73,3.72-4.73a2.93,2.93,0,0,1,1.73.54v-4.05c0-.26,0-.36.3-.36h.81c.24,0,.33,0,.32.33v10.53Zm-1.43-5.52h0a2.12,2.12,0,0,0-1.52-.61c-1.46,0-2.5,1.48-2.5,3.48,0,2.29,1.09,3.58,2.61,3.58s1.39-.82,1.41-1.3v-5.14Z" transform="translate(-9.67 -36.52)"/><path class="cls-12" d="M187.64,123.16c.13,2.31,1.25,3.38,2.46,3.38a2.53,2.53,0,0,0,2.19-1.45c.22-.4.27-.48.46-.48s.32.05.32.39a3.29,3.29,0,0,1-3.17,2.89,3.15,3.15,0,0,1-2.95-1.91,6.71,6.71,0,0,1,0-5.19,3.23,3.23,0,0,1,2.93-1.83,3,3,0,0,1,3,2.93c0,.46-.27.49-.46.53l-4.85.74Zm3.79-1.42h0a1.84,1.84,0,0,0-1.7-1.85c-1.28,0-1.93,1-2.09,2.46l3.79-.61Z" transform="translate(-9.67 -36.52)"/><path class="cls-12" d="M194.48,115.35c0-.25.11-.26.32-.26h.79c.24,0,.3,0,.3.26v12c0,.26-.1.3-.3.3h-.81c-.25,0-.3,0-.3-.3v-12Z" transform="translate(-9.67 -36.52)"/><path class="cls-12" d="M203.15,127.41c0,.26-.1.28-.28.28h-.81c-.22,0-.32,0-.32-.28v-6.89c0-.58.06-.77.41-1a5.38,5.38,0,0,1,2.52-.58c.78,0,1.63.18,1.63,1a.67.67,0,0,1-.65.71c-.29,0-.4-.13-.67-.45a1.07,1.07,0,0,0-.87-.41c-.93,0-1,.72-1,1.15v6.49Z" transform="translate(-9.67 -36.52)"/><path class="cls-12" d="M210.22,127.89c-2.39,0-3.64-2.24-3.64-4.45s1.33-4.48,3.63-4.48c2.49,0,3.57,2.51,3.61,4.42,0,2.21-1.25,4.52-3.6,4.52Zm-.11-8h0c-1.25,0-2.06,1.37-2.06,3.33,0,2.31,1.09,3.67,2.23,3.67s2.12-1.35,2-3.62-1.14-3.38-2.2-3.38Zm.33-1.73h0a.5.5,0,0,1-.27.12.34.34,0,0,1-.3-.38.5.5,0,0,1,.16-.36l1.39-1.47a.63.63,0,0,1,.41-.25c.25,0,.43.28.43.59a.71.71,0,0,1-.28.61l-1.54,1.14Z" transform="translate(-9.67 -36.52)"/><path class="cls-12" d="M216.9,119.88v5.36a2.16,2.16,0,0,0,.19,1.19,1,1,0,0,0,.95.58l.41,0a.3.3,0,0,1,.32.33c0,.43-.87.54-1.24.54a2,2,0,0,1-1.66-.76,2.51,2.51,0,0,1-.38-1.57v-5.65h-.84c-.21,0-.24,0-.24-.25,0-.43,0-.46.24-.48h.84v-1a.65.65,0,0,1,.24-.58l.73-.68c.16-.15.22-.18.27-.18s.17.21.17.41v2h1.38c.19,0,.25,0,.25.23,0,.44,0,.49-.24.49Z" transform="translate(-9.67 -36.52)"/><path class="cls-12" d="M225.71,125.65c0,.82-.06,1.29-.67,1.66a5.38,5.38,0,0,1-2.6.58,3.24,3.24,0,0,1-2.25-.64,2.34,2.34,0,0,1-.73-2v-5.83c0-.21,0-.3.28-.3h.82c.22,0,.32,0,.32.31v5.47c0,.77,0,2,1.78,2s1.63-1,1.63-1.76V119.5c0-.16,0-.3.19-.33s.57,0,.87,0,.33.07.35.31v6.18Z" transform="translate(-9.67 -36.52)"/><path class="cls-12" d="M227.51,115.35c0-.25.11-.26.32-.26h.79c.24,0,.3,0,.3.26v12c0,.26-.1.3-.3.3h-.81c-.25,0-.3,0-.3-.3v-12Z" transform="translate(-9.67 -36.52)"/><path class="cls-12" d="M234,127.89c-2.39,0-3.64-2.24-3.64-4.45S231.69,119,234,119c2.49,0,3.57,2.51,3.61,4.42,0,2.21-1.25,4.52-3.6,4.52Zm-.11-8h0c-1.25,0-2.06,1.37-2.06,3.33,0,2.31,1.09,3.67,2.23,3.67s2.12-1.35,2-3.62-1.14-3.38-2.2-3.38Z" transform="translate(-9.67 -36.52)"/><path class="cls-13" d="M236.59,48V46.26h1.15c.59,0,1.22.13,1.22.82,0,.86-.64.91-1.36.91Zm0,.72h1L239,51.13H240l-1.59-2.46a1.45,1.45,0,0,0,1.44-1.54c0-1.1-.65-1.59-2-1.59h-2.12v5.58h.84Zm-2.92-.38a3.93,3.93,0,1,1,3.94,4,3.91,3.91,0,0,1-3.94-4m3.94,4.85a4.83,4.83,0,1,0-4.91-4.85,4.83,4.83,0,0,0,4.91,4.85" transform="translate(-9.67 -36.52)"/></g></g></svg>